<?xml version="1.0" standalone="no"?>
<!DOCTYPE svg PUBLIC "-//W3C//DTD SVG 20010904//EN"
 "http://www.w3.org/TR/2001/REC-SVG-20010904/DTD/svg10.dtd">
<svg version="1.0" xmlns="http://www.w3.org/2000/svg"
 width="850.000000pt" height="850.000000pt" viewBox="0 0 850.000000 850.000000"
 preserveAspectRatio="xMidYMid meet">

<g transform="translate(0.000000,850.000000) scale(0.100000,-0.100000)"
fill="#000000" stroke="none">
<path d="M4894 7632 c-6 -4 -70 -194 -142 -421 -73 -228 -136 -419 -141 -424
-16 -16 -260 -12 -350 6 -46 9 -105 17 -131 17 -46 0 -49 2 -59 33 -5 17 -58
199 -117 402 -58 204 -111 373 -118 377 -6 4 -175 8 -375 8 l-364 0 8 -1557
c6 -1336 9 -1562 22 -1586 8 -16 16 -27 18 -25 2 2 0 705 -5 1563 -4 858 -4
1563 -1 1568 4 4 155 6 337 5 l329 -3 5 -675 5 -675 537 1 c296 0 541 3 544 7
4 4 10 307 13 674 l6 668 338 3 337 2 0 -82 c0 -146 -39 -2873 -46 -3175 l-6
-293 -319 0 c-297 0 -319 1 -320 18 -1 9 -2 361 -3 782 l-1 765 -542 3 -543 2
0 -769 c0 -423 -3 -776 -6 -785 -5 -14 -33 -16 -205 -16 -109 0 -199 -3 -199
-7 1 -31 19 -33 225 -31 l208 3 144 480 143 480 0 308 0 307 228 -2 227 -3 1
-215 c1 -118 -1 -221 -3 -227 -4 -9 -10 -10 -23 -3 -23 12 -347 13 -354 1 -7
-11 105 -21 257 -21 l127 0 0 -78 c0 -72 11 -115 144 -548 l143 -469 354 0
354 0 8 500 c36 2425 44 3091 35 3103 -8 9 -93 12 -362 12 -193 0 -356 -4
-362 -8z m-19 -528 l-7 -301 -100 -7 c-55 -4 -102 -5 -105 -2 -4 4 144 481
200 646 l12 35 3 -35 c2 -19 1 -171 -3 -336z m-925 27 c50 -172 89 -316 86
-318 -3 -3 -46 -8 -96 -12 l-90 -6 1 335 c0 184 2 331 5 325 2 -5 45 -151 94
-324z m32 -720 c39 -75 46 -96 37 -112 -8 -16 -19 -19 -57 -17 -59 4 -72 26
-72 129 0 73 11 104 34 96 6 -2 32 -45 58 -96z m840 29 c5 -19 6 -63 2 -97
l-6 -63 -48 0 c-48 0 -48 0 -55 38 -6 40 4 76 37 130 27 44 59 41 70 -8z
m-742 -1162 l0 -313 -115 -385 c-64 -212 -117 -389 -119 -395 -3 -5 -5 308 -5
698 l-1 707 120 0 120 0 0 -312z m783 305 c3 -5 2 -320 -2 -702 l-6 -693 -122
399 -123 399 0 302 0 302 124 0 c69 0 127 -3 129 -7z"/>
<path d="M4256 5195 c-18 -14 -7 -15 119 -15 111 0 137 3 127 13 -20 19 -222
22 -246 2z"/>
<path d="M2726 5080 c-184 -39 -324 -83 -420 -133 -93 -48 -116 -78 -116 -154
0 -148 65 -506 160 -884 83 -328 135 -494 262 -848 127 -353 210 -602 239
-715 21 -81 69 -310 66 -313 -1 -1 -58 -7 -127 -13 -216 -19 -306 -38 -525
-110 -325 -107 -487 -142 -750 -160 -352 -25 -523 -76 -653 -195 -126 -114
-142 -192 -71 -334 50 -101 113 -155 233 -200 204 -76 640 -162 1031 -202 296
-30 306 -34 376 -153 46 -80 176 -216 259 -271 133 -88 209 -112 461 -144 449
-58 941 -47 1364 30 61 11 155 24 210 30 277 27 531 63 630 89 192 49 406 88
545 100 291 24 683 94 853 151 154 51 360 165 452 250 50 46 70 97 60 157 -12
69 -47 159 -84 209 -69 97 -124 168 -155 201 -60 64 -239 155 -481 243 -71 26
-179 66 -239 89 -113 43 -232 71 -496 114 -85 15 -165 28 -176 31 l-22 5 18
97 c33 179 18 157 133 187 189 49 339 138 493 291 138 136 266 337 334 524 37
100 37 109 3 117 -16 4 -40 16 -54 26 -36 27 -63 17 -172 -60 -96 -68 -171
-107 -186 -97 -5 3 -21 1 -35 -5 -20 -7 -26 -16 -26 -39 0 -54 -49 -186 -99
-270 -66 -110 -144 -203 -231 -276 -73 -62 -90 -73 -90 -58 0 25 55 200 113
358 81 224 229 683 308 956 104 365 140 536 184 882 34 265 35 251 -23 307
-58 56 -169 103 -351 149 -134 34 -165 37 -159 19 3 -7 65 -29 138 -50 227
-65 359 -128 375 -179 11 -33 -22 -69 -97 -104 -58 -28 -75 -32 -91 -23 -12 6
-32 14 -46 18 -25 7 -23 9 24 29 67 30 85 48 85 86 0 39 -26 65 -102 100 -56
26 -233 75 -269 75 -42 0 -15 -20 54 -40 245 -71 321 -120 252 -166 -14 -9
-53 -26 -87 -38 -56 -19 -63 -24 -61 -46 1 -14 -3 -108 -8 -209 l-9 -184 -105
-147 c-103 -145 -208 -281 -284 -371 -34 -39 -46 -67 -82 -191 -22 -80 -44
-150 -48 -155 -3 -5 -31 -26 -61 -48 -61 -44 -150 -130 -150 -145 0 -6 -5 -10
-11 -10 -5 0 -7 -5 -4 -10 3 -6 -1 -13 -9 -16 -9 -3 -16 -12 -16 -19 0 -7 -7
-25 -14 -41 -8 -15 -13 -31 -10 -36 3 -4 1 -8 -5 -8 -5 0 -22 -53 -36 -117
-15 -65 -65 -250 -111 -411 -46 -162 -84 -302 -84 -313 0 -10 -4 -19 -8 -19
-5 0 -17 -8 -28 -17 -30 -28 -112 -61 -204 -84 -111 -27 -331 -37 -415 -19
-33 8 -65 15 -72 16 -31 6 -121 54 -147 77 -22 21 -30 38 -32 74 -15 189 -127
885 -144 891 -6 2 -10 10 -10 18 0 40 -106 165 -124 147 -3 -4 -6 -2 -6 3 0
12 -57 38 -116 53 l-42 11 -7 148 c-3 81 -8 158 -11 172 -5 30 -119 234 -159
286 -42 55 -41 32 3 -43 22 -37 59 -106 83 -153 l43 -85 7 -315 c4 -173 12
-349 18 -390 6 -41 15 -154 21 -250 5 -96 14 -189 20 -207 7 -18 28 -42 53
-59 97 -63 200 -150 234 -198 105 -145 328 -375 513 -530 119 -100 182 -156
173 -156 -3 0 -51 25 -105 56 -69 38 -134 87 -216 162 -191 174 -216 202 -290
322 -45 73 -83 123 -104 136 -162 104 -211 138 -261 185 l-58 54 -14 185 c-8
102 -19 219 -25 260 -5 41 -14 163 -20 270 -6 107 -15 260 -20 340 -5 80 -10
157 -10 172 0 18 -16 45 -46 79 -80 91 -153 195 -215 311 -33 62 -96 170 -140
239 -43 70 -79 130 -79 134 0 12 50 75 59 75 5 0 12 -12 15 -26 4 -15 9 -25
11 -22 2 2 -1 23 -7 46 -9 36 -15 42 -42 47 -272 43 -362 60 -434 81 -155 45
-180 87 -82 136 77 39 208 76 424 123 55 12 75 20 68 27 -22 22 -344 -44 -474
-97 -80 -33 -118 -68 -118 -111 0 -77 149 -130 473 -171 75 -9 137 -19 137
-23 0 -3 -12 -18 -27 -32 l-28 -26 -140 24 c-355 60 -545 130 -545 200 0 74
198 161 535 234 77 17 150 33 163 35 38 9 24 25 -20 24 -24 0 -105 -13 -182
-29z m-453 -370 c83 -49 320 -110 542 -140 l90 -12 82 -132 c45 -72 110 -183
144 -246 59 -111 126 -210 214 -315 l42 -50 7 -155 c19 -429 27 -576 37 -642
5 -40 16 -158 24 -263 l13 -190 80 -75 c44 -41 122 -100 173 -131 102 -61 114
-74 218 -239 43 -68 80 -115 114 -141 27 -22 93 -81 146 -131 100 -94 149
-130 264 -193 38 -20 66 -39 63 -42 -2 -3 -69 2 -148 11 -79 9 -197 17 -264
20 -66 2 -136 9 -155 15 -33 11 -299 78 -349 87 -14 3 -50 11 -80 19 -30 7
-68 16 -85 19 -93 15 -156 31 -253 61 -65 21 -128 35 -159 35 -29 0 -53 4 -53
9 0 5 -14 83 -31 173 -56 301 -90 415 -285 957 -171 473 -257 766 -358 1223
-44 196 -86 488 -72 488 3 0 20 -9 39 -20z m3996 -140 c-23 -181 -50 -341 -85
-497 -58 -260 -266 -937 -404 -1313 -40 -107 -84 -244 -100 -305 l-27 -110
-80 -40 c-43 -23 -100 -45 -126 -51 l-46 -11 -7 46 c-12 71 -9 182 6 225 16
49 16 146 0 263 l-12 89 35 110 c47 144 63 212 76 309 6 44 25 125 42 179 24
77 59 227 59 251 0 2 15 12 33 23 36 21 199 211 264 307 22 33 58 94 79 135
21 41 51 90 67 109 15 18 33 44 38 58 8 20 39 251 39 291 0 7 13 17 28 23 15
5 53 23 83 38 30 16 55 28 56 27 1 -1 -7 -71 -18 -156z m-206 108 c21 -11 22
-45 2 -203 -13 -103 -18 -123 -43 -154 -15 -20 -50 -76 -76 -126 -27 -49 -62
-110 -79 -135 -59 -87 -219 -271 -257 -295 -42 -27 -44 -30 -60 -125 -6 -36
-26 -112 -45 -170 -18 -58 -41 -154 -50 -215 -10 -60 -37 -173 -62 -250 l-44
-140 10 -86 c14 -110 13 -209 -3 -283 l-12 -58 -12 83 c-6 46 -18 131 -27 188
l-16 104 56 179 c31 99 67 237 80 307 12 70 42 198 64 285 46 173 30 145 198
356 89 112 270 366 276 387 3 10 9 98 12 196 l7 178 32 -7 c17 -3 39 -10 49
-16z m473 -1527 l23 -18 -23 -22 c-12 -11 -49 -32 -82 -44 -32 -13 -78 -36
-101 -50 -48 -30 -65 -33 -82 -14 -8 11 -1 21 37 46 26 17 76 52 111 76 71 50
83 53 117 26z m-25 -197 c-162 -339 -399 -568 -689 -664 -52 -17 -96 -30 -98
-28 -2 2 25 23 60 46 201 132 389 384 443 594 14 54 21 67 33 61 30 -14 70 -5
117 24 26 17 66 36 88 43 22 7 51 21 65 31 14 10 26 13 28 8 2 -5 -19 -56 -47
-115z m-306 9 c-22 -122 -97 -272 -203 -404 -156 -195 -419 -356 -597 -365
l-70 -4 85 19 c107 24 161 47 264 114 158 104 278 228 371 387 45 77 95 210
95 253 0 30 7 37 38 37 23 0 24 -3 17 -37z m-852 -630 c5 -80 4 -93 -10 -93
-13 0 -15 9 -9 61 3 34 6 78 6 97 0 65 7 28 13 -65z m262 -170 c-6 -25 -55
-281 -55 -289 0 -2 -19 -1 -42 2 -30 4 -59 0 -95 -14 -29 -11 -53 -18 -53 -16
0 3 9 22 20 44 16 32 20 61 21 149 l1 111 37 6 c20 3 61 12 91 19 81 20 83 19
75 -12z m-245 -118 l0 -105 -65 -128 c-35 -70 -72 -136 -82 -148 -22 -25 -83
-68 -83 -58 0 4 24 52 54 108 80 150 114 234 126 312 17 110 21 124 36 124 11
0 14 -21 14 -105z m-2992 -507 c48 -6 82 -16 82 -23 0 -20 -57 -99 -106 -147
l-49 -48 -85 -5 c-47 -2 -209 -7 -360 -10 -257 -4 -273 -3 -245 12 17 9 62 44
100 78 39 34 95 80 125 103 l56 41 114 4 c63 1 153 4 200 5 47 1 122 -3 168
-10z m3907 -89 c51 -9 185 -61 185 -71 0 -2 -39 -4 -87 -4 -106 -1 -188 -21
-297 -73 -195 -92 -346 -250 -393 -412 -8 -27 -18 -49 -21 -49 -25 -1 -298 44
-305 49 -4 4 1 32 12 62 60 175 186 316 361 404 158 79 399 121 545 94z
m-5350 -82 c18 -37 55 -87 93 -126 34 -35 62 -67 62 -72 0 -16 -63 -9 -107 12
-86 42 -137 134 -114 209 6 22 17 40 24 40 7 0 26 -28 42 -63z m1509 31 c-57
-95 -82 -126 -92 -116 -8 8 3 27 41 69 53 58 64 69 51 47z m3872 -79 c-152
-37 -329 -138 -415 -235 -40 -46 -111 -173 -111 -201 0 -12 -38 -33 -60 -33
-28 0 57 164 122 235 93 102 283 210 422 240 95 21 130 16 42 -6z m-3998 -59
c12 -19 10 -20 -53 -20 -36 0 -128 -7 -203 -16 -171 -20 -362 -15 -442 12
l-55 18 295 8 c162 4 311 9 330 11 92 10 115 7 128 -13z m928 -450 c40 -5 85
-15 100 -21 29 -12 29 -12 -31 -30 -113 -35 -110 -35 -144 12 -35 48 -39 63
-13 55 9 -3 49 -10 88 -16z m-572 -158 c87 -84 117 -106 211 -152 59 -30 108
-59 109 -65 3 -30 -145 0 -238 47 -50 26 -137 108 -176 166 -30 45 -40 102
-19 102 7 0 57 -44 113 -98z m759 91 c-7 -2 -19 -2 -25 0 -7 3 -2 5 12 5 14 0
19 -2 13 -5z m597 -338 c0 -32 -50 -44 -274 -65 -115 -11 -207 -1 -243 26 -33
24 -1 32 157 42 258 15 360 14 360 -3z"/>
<path d="M7315 740 c-70 -10 -132 -44 -185 -100 -58 -61 -130 -94 -268 -125
-61 -13 -125 -31 -141 -39 -39 -21 -71 -63 -71 -94 0 -59 85 -152 175 -191 45
-20 172 -25 264 -12 44 7 154 37 243 67 90 31 213 71 273 89 155 47 281 102
305 132 50 64 11 110 -163 188 -196 88 -289 106 -432 85z m-358 -342 c27 -15
70 -29 96 -33 90 -14 69 -45 -30 -45 -45 0 -83 8 -142 31 -86 33 -96 41 -87
66 9 23 102 13 163 -19z"/>
<path d="M1778 685 c-52 -17 -98 -63 -98 -99 0 -29 33 -72 69 -91 33 -17 169
-35 263 -35 113 0 238 62 238 117 0 27 -37 59 -87 77 -107 38 -311 54 -385 31z
m98 -37 c11 -17 -33 -48 -68 -48 -23 0 -29 4 -26 17 6 32 79 56 94 31z"/>
</g>
</svg>
